<svg width="252" height="252" xmlns="http://www.w3.org/2000/svg" xmlns:xlink="http://www.w3.org/1999/xlink" xml:space="preserve" overflow="hidden"><g transform="translate(-737 -342)"><path d="M863 384C883.297 384 899.75 400.453 899.75 420.75 899.75 441.047 883.297 457.5 863 457.5 842.703 457.5 826.25 441.047 826.25 420.75 826.27 400.462 842.712 384.02 863 384M863 378.75C839.804 378.75 821 397.554 821 420.75 821 443.946 839.804 462.75 863 462.75 886.196 462.75 905 443.946 905 420.75 905 397.554 886.196 378.75 863 378.75Z" fill="#8492BD"/><path d="M947 557.25 941.75 557.25 941.75 516.562C941.625 510.987 938.998 505.763 934.597 502.338 923.084 493.504 909.903 487.092 895.847 483.487 885.204 480.213 874.135 478.532 863 478.5 851.868 478.693 840.812 480.371 830.125 483.487 816.215 487.561 803.092 493.951 791.306 502.388 786.949 505.817 784.359 511.019 784.25 516.562L784.25 557.25 779 557.25 779 516.562C779.13 509.393 782.482 502.662 788.125 498.237 800.44 489.397 814.162 482.703 828.71 478.44 839.858 475.191 851.39 473.446 863 473.25 874.634 473.279 886.2 475.029 897.322 478.445 912.047 482.239 925.85 488.977 937.899 498.253 943.531 502.678 946.873 509.401 947 516.562Z" fill="#8492BD"/></g></svg>